<svg width="36" height="36" viewBox="0 0 36 36" fill="none" xmlns="http://www.w3.org/2000/svg">
<g clip-path="url(#clip0_860_6)">
<path fill-rule="evenodd" clip-rule="evenodd" d="M18.75 0C8.39062 0 0 8.25874 0 18.4553C0 26.6218 5.36719 33.5194 12.8203 35.9647C13.7578 36.1262 14.1094 35.5726 14.1094 35.0881C14.1094 34.6498 14.0859 33.1965 14.0859 31.6508C9.375 32.5044 8.15625 30.5204 7.78125 29.4823C7.57031 28.9517 6.65625 27.3138 5.85938 26.8755C5.20313 26.5295 4.26562 25.6759 5.83594 25.6529C7.3125 25.6298 8.36719 26.9909 8.71875 27.5445C10.4062 30.3359 13.1016 29.5515 14.1797 29.0671C14.3437 27.8675 14.8359 27.0601 15.375 26.5987C11.2031 26.1373 6.84375 24.5455 6.84375 17.4864C6.84375 15.4794 7.57031 13.8184 8.76563 12.5265C8.57813 12.0651 7.92187 10.1735 8.95313 7.63588C8.95313 7.63588 10.5234 7.15142 14.1094 9.52754C15.6094 9.1123 17.2031 8.90468 18.7969 8.90468C20.3906 8.90468 21.9844 9.1123 23.4844 9.52754C27.0703 7.12836 28.6406 7.63588 28.6406 7.63588C29.6719 10.1735 29.0156 12.0651 28.8281 12.5265C30.0234 13.8184 30.75 15.4563 30.75 17.4864C30.75 24.5686 26.3672 26.1373 22.1953 26.5987C22.875 27.1754 23.4609 28.2827 23.4609 30.0129C23.4609 32.4813 23.4375 34.4653 23.4375 35.0881C23.4375 35.5726 23.7891 36.1493 24.7266 35.9647C28.4487 34.7278 31.6831 32.3732 33.9745 29.2322C36.2659 26.0912 37.4989 22.3221 37.5 18.4553C37.5 8.25874 29.1094 0 18.75 0Z" fill="white"/>
</g>
<defs>
<clipPath id="clip0_860_6">
<rect width="36" height="36" fill="white"/>
</clipPath>
</defs>
</svg>
