<svg width="36" height="36" viewBox="0 0 36 36" fill="none" xmlns="http://www.w3.org/2000/svg">
<g clip-path="url(#clip0_848_34)">
<path d="M30.4762 6.73845C28.1812 5.70345 25.7212 4.93845 23.1487 4.50345C23.1258 4.49905 23.1021 4.50188 23.0809 4.51156C23.0596 4.52123 23.0419 4.53727 23.0302 4.55745C22.7152 5.11095 22.3642 5.83245 22.1182 6.40245C19.3899 5.9948 16.6161 5.9948 13.8877 6.40245C13.6137 5.77074 13.3047 5.15478 12.9622 4.55745C12.9506 4.53702 12.933 4.52062 12.9119 4.51044C12.8907 4.50025 12.8669 4.49677 12.8437 4.50045C10.2727 4.93545 7.81272 5.70045 5.51622 6.73695C5.49646 6.74524 5.47971 6.75937 5.46822 6.77745C0.800221 13.6399 -0.479279 20.3329 0.149221 26.9419C0.15097 26.9581 0.155994 26.9738 0.163988 26.988C0.171982 27.0022 0.182779 27.0146 0.195721 27.0244C2.92031 29.0081 5.95923 30.5192 9.18522 31.4944C9.20771 31.5014 9.23176 31.5014 9.25424 31.4944C9.27672 31.4874 9.29658 31.4739 9.31122 31.4554C10.0042 30.5254 10.6222 29.5429 11.1502 28.5109C11.1817 28.4509 11.1517 28.3789 11.0887 28.3549C10.1197 27.99 9.18085 27.5497 8.28072 27.0379C8.26455 27.0287 8.25092 27.0156 8.24106 26.9998C8.2312 26.984 8.22541 26.966 8.22422 26.9474C8.22303 26.9288 8.22647 26.9103 8.23424 26.8933C8.24201 26.8764 8.25386 26.8617 8.26872 26.8504C8.45772 26.7109 8.64672 26.5654 8.82672 26.4199C8.84292 26.4069 8.86244 26.3985 8.8831 26.3959C8.90375 26.3932 8.92474 26.3964 8.94372 26.4049C14.8342 29.0509 21.2137 29.0509 27.0352 26.4049C27.0543 26.3959 27.0755 26.3923 27.0964 26.3947C27.1174 26.3971 27.1372 26.4053 27.1537 26.4184C27.3337 26.5654 27.5212 26.7109 27.7117 26.8504C27.7267 26.8614 27.7388 26.876 27.7468 26.8927C27.7548 26.9095 27.7585 26.928 27.7576 26.9466C27.7567 26.9652 27.7513 26.9833 27.7417 26.9992C27.7321 27.0151 27.7187 27.0284 27.7027 27.0379C26.8057 27.5539 25.8727 27.9904 24.8932 28.3534C24.8782 28.3589 24.8645 28.3675 24.853 28.3787C24.8416 28.3899 24.8326 28.4034 24.8268 28.4183C24.821 28.4332 24.8184 28.4492 24.8193 28.4651C24.8201 28.4811 24.8244 28.4967 24.8317 28.5109C25.3717 29.5414 25.9897 30.5224 26.6692 31.4539C26.6833 31.4731 26.703 31.4874 26.7256 31.4949C26.7481 31.5024 26.7725 31.5028 26.7952 31.4959C30.0267 30.5234 33.0706 29.0116 35.7982 27.0244C35.8115 27.0151 35.8227 27.0031 35.831 26.9891C35.8393 26.9752 35.8444 26.9596 35.8462 26.9434C36.5962 19.3024 34.5892 12.6634 30.5227 6.78045C30.5128 6.76133 30.4963 6.74643 30.4762 6.73845ZM12.0307 22.9174C10.2577 22.9174 8.79522 21.3139 8.79522 19.3474C8.79522 17.3794 10.2292 15.7774 12.0307 15.7774C13.8457 15.7774 15.2947 17.3929 15.2662 19.3474C15.2662 21.3154 13.8322 22.9174 12.0307 22.9174ZM23.9932 22.9174C22.2187 22.9174 20.7577 21.3139 20.7577 19.3474C20.7577 17.3794 22.1902 15.7774 23.9932 15.7774C25.8082 15.7774 27.2572 17.3929 27.2287 19.3474C27.2287 21.3154 25.8097 22.9174 23.9932 22.9174Z" fill="#EAEFF4"/>
</g>
<defs>
<clipPath id="clip0_848_34">
<rect width="36" height="36" fill="white"/>
</clipPath>
</defs>
</svg>
