<svg width="37" height="37" viewBox="0 0 37 37" fill="none" xmlns="http://www.w3.org/2000/svg">
<path d="M10.3739 3.57146L12.9335 2.79974C13.7783 2.54546 14.6867 2.60715 15.4893 2.97333C16.2919 3.3395 16.9339 3.98514 17.2956 4.78981L19.0901 8.78053C19.4015 9.47286 19.4883 10.2453 19.3383 10.9895C19.1883 11.7337 18.809 12.4122 18.2536 12.9298L15.5222 15.4749C15.1562 15.8224 15.4337 17.1769 16.7709 19.4947C18.1096 21.8138 19.1442 22.7309 19.6213 22.5881L23.1997 21.494C23.925 21.2721 24.7016 21.2828 25.4206 21.5245C26.1396 21.7662 26.7649 22.2269 27.2089 22.8419L29.7593 26.3767C30.2744 27.0905 30.5129 27.967 30.4305 28.8434C30.3481 29.7198 29.9504 30.5365 29.3113 31.1417L27.3397 33.0089C26.7033 33.6117 25.9183 34.0348 25.065 34.2351C24.2116 34.4355 23.3204 34.4059 22.4822 34.1493C18.3514 32.8847 14.5258 29.1319 10.954 22.9436C7.37427 16.7461 6.02245 11.5185 6.96463 7.24767C7.15465 6.3871 7.57075 5.59277 8.17003 4.94657C8.7693 4.30038 9.53007 3.82569 10.3739 3.57146Z" fill="#EAEFF4"/>
</svg>
