<svg width="37" height="37" viewBox="0 0 37 37" fill="none" xmlns="http://www.w3.org/2000/svg">
<path d="M33.9173 13.271V25.8232C33.9174 27.103 33.4278 28.3344 32.5488 29.2646C31.6699 30.1948 30.4683 30.7535 29.1906 30.8259L28.9069 30.8337H8.0944C6.81461 30.8337 5.58329 30.3441 4.65305 29.4652C3.7228 28.5862 3.16415 27.3846 3.09169 26.1069L3.08398 25.8232V13.271L17.9642 21.0657C18.1297 21.1524 18.3138 21.1977 18.5007 21.1977C18.6875 21.1977 18.8716 21.1524 19.0372 21.0657L33.9173 13.271ZM8.0944 6.16699H28.9069C30.1488 6.16684 31.3466 6.62794 32.2678 7.46086C33.189 8.29378 33.7681 9.43915 33.8927 10.6748L18.5007 18.7377L3.10865 10.6748C3.22817 9.48822 3.76702 8.38316 4.62835 7.55829C5.48968 6.73341 6.61699 6.24282 7.80765 6.1747L8.0944 6.16699H28.9069H8.0944Z" fill="#EAEFF4"/>
</svg>
